<?xml version="1.0" encoding="UTF-8"?>
<svg id="Layer_1" xmlns="http://www.w3.org/2000/svg" version="1.1" viewBox="0 0 256 256">
  <!-- Generator: Adobe Illustrator 29.6.1, SVG Export Plug-In . SVG Version: 2.1.1 Build 9)  -->
  <defs>
    <style>
      .st0 {
        fill: #fff;
      }

      .st1 {
        fill: #80287c;
      }
    </style>
  </defs>
  <rect x="10" y="10" width="236" height="236" rx="24" ry="24"/>
  <g>
    <path class="st0" d="M32.9,96.9h21.1l-4.3,20.4c5.1-6.5,11.1-14.3,15.7-20.4h24.2l-22.4,23,11.4,32.5h-22.2l-5.3-20.2-5.8,5.6-3.1,14.6h-21.1l11.7-55.5Z"/>
    <path class="st0" d="M98.3,138.8c.2,1.9,1.5,3.2,3.7,3.2s3.5-.4,3.5-2.2-1.3-1.9-5.2-2.9c-12.6-3.1-15.8-7-15.8-13s6.2-15.4,21-15.4,21,6,20.8,14.2h-16.7c0-2.7-1.6-3.9-3.9-3.9s-2.6.6-2.6,1.9,1.8,2,8,3.7c10.4,2.8,13.5,7.3,13.5,13.2,0,11.6-10.9,16.1-23.1,16.1s-20.5-5.7-20.9-14.8h17.5Z"/>
    <path class="st1" d="M133.7,123.1c1.9-8.9,2.3-11.3,2.7-13.4h20.4c-.2,1.2-.4,2.7-.6,3.8,2.3-2.4,6.2-4.9,12.1-4.9,9.3,0,12.6,5.7,10.2,17.2l-5.6,26.7h-20.4l5.5-26.1c.8-3.5.2-4.1-1.1-4.1s-2.7,1.2-3.4,4.8l-5.3,25.3h-20.5l6.2-29.4Z"/>
    <path class="st1" d="M226.5,147.2c-2.9,13.7-8.1,20.7-26.3,20.7s-20.7-9.2-20.8-14.7h19.4c0,1.5.4,3.1,2.6,3.1s3.3-.4,4.3-5.2l.9-4.3c-3,2.6-6.2,3.5-10.6,3.5-8.5,0-13.3-5.6-13.3-14.6s7.4-27,21.7-27,8.5,1.9,9.4,4.2c.4-1.2.9-2.3,1.2-3.1h19.8c-.9,3-1.9,7.8-3.3,14.2l-5,23.3ZM203.4,135.6c0,2,.7,3.3,2.2,3.3,3,0,4.3-6.3,5.3-10.8,1.1-5.5,1.3-7.6-1.4-7.6s-6,10.9-6,15.1Z"/>
  </g>
</svg>